<svg xmlns="http://www.w3.org/2000/svg" width="260.452" height="36.835" viewBox="0 0 260.452 36.835">
    <g transform="translate(-371.85 -45.8)">
        <path d="M1.85,24.622V2.6H5.422V-.977H26.667v7.7H11.487V20.38h7.479V15.1h7.7v13.1H5.422V24.622ZM51.485-1.2V27.971H41.96V20.157H38.723v7.814H29.2V-1.2ZM37.011,13.943h1.265v-1.6h4.13v1.6h1.265V9.032H41.96V7.283H38.723V9.032H37.011Zm-1.86-7.33h3.014V3.86H35.151Zm7.367,0h2.977V3.86H42.518ZM63.763-1.2V2.372h2.753V6.39h5.06V2.372H74.33V-1.2h9.3V27.971h-9.3V15.581H72.507V19H65.586V15.581H63.763v12.39h-9.3V-1.2Zm44.909,0V6.5H96.245V9.479h12.427v7.814H96.245v2.977h12.427v7.7H86.608V-1.2Zm25.041,0V15.469h-2.53v1.377h2.53V27.971h-9.525V17.4h-3.237V27.971h-9.525V-1.2ZM121.063,9.367h3.014V6.614h-3.014ZM158.977-1.2V12.716h-2.53v1.377h2.53V27.971H136.69V-1.2ZM146.326,20.157h3.014V17.4h-3.014Zm0-10.79h3.014V6.614h-3.014ZM187.217-1.2V27.971H161.953V-1.2Zm-15.85,21.357H177.8V6.614h-6.437Zm21.692-5.4V12.009h-3.088V-1.2H199.5V9.367h3.237V-1.2h9.525V12.009h-3.125v2.753h-2.977V27.971h-9.637V14.762Zm23.292-.67V12.716h-1.6V-1.2h22.287V12.716h-1.6v1.377h1.6V27.971H214.751V14.092Zm8.26,6.065h2.53V17.4h-2.53Zm0-10.79h2.53V6.614h-2.53ZM262.3-1.2V27.971H240.015V-1.2ZM249.875,20.157h2.53V6.614h-2.53Z" transform="translate(370 54.441)" fill="#2c2c2c" />
        <path d="M1.85,24.4V15.1a.571.571,0,0,1,.074-.223.866.866,0,0,1,.149-.223,1.136,1.136,0,0,1,.223-.13.725.725,0,0,1,.26-.093A1.111,1.111,0,0,1,3,14.446q.372.056.446.056v-.558A3.713,3.713,0,0,1,3,13.869a1.085,1.085,0,0,1-.446-.149,1.227,1.227,0,0,0-.2-.074q-.13-.037-.242-.074-.149-.037-.26-.074V2.372H5.422V-1.2H26.667V6.5H11.375v2.27a.7.7,0,0,1-.223-.037.738.738,0,0,1-.335-.074,1,1,0,0,1-.353-.2,3.674,3.674,0,0,0-.353-.242,1.216,1.216,0,0,1-.13-.074,1.216,1.216,0,0,0-.13-.074,1.444,1.444,0,0,1-.186-.074,1.568,1.568,0,0,0-.26.037q-.186.037-.428.074t-.446.074a2.324,2.324,0,0,1-.242.037q-.186.037-.446.074l-.5.074q-.242.037-.446.056l-.2.019q-.149,0-.54.019t-.837.019q-.446,0-.837-.019t-.54-.019a.263.263,0,0,0,.223.223.732.732,0,0,0,.335.13.732.732,0,0,1,.335.13,1.154,1.154,0,0,0,.26.074l.372.074q.186.037.335.056t.186.019q.223,0,.781.037t1.172.074q.614.037,1.172.074t.781.037q.074.074.242.223t.353.335q.186.186.335.353t.223.242a.5.5,0,0,0,.093.13l.13.13a1.82,1.82,0,0,1,.112.186v9.116q.409,0,1.47.019l2.27.037q1.209.019,2.27.019h1.47a3.184,3.184,0,0,0,.335-.037q.26-.037.577-.074t.577-.074a3.184,3.184,0,0,1,.335-.037h.93a3.961,3.961,0,0,1,.409.037q.3.037.633.074t.614.074a3.47,3.47,0,0,0,.391.037l.707-.67H23.207a2.283,2.283,0,0,1-.3-.037q-.223-.037-.5-.093t-.521-.093q-.242-.037-.279-.037-.149,0-.5-.037t-.763-.074q-.409-.037-.763-.074t-.5-.037v-4.13h7.59v13.1H20.23l-.167-.074q-.167-.074-.391-.186t-.446-.242q-.223-.13-.372-.2-.074-.037-.353-.223t-.353-.223a1.141,1.141,0,0,0-.149.019,1.142,1.142,0,0,1-.149.019,2.169,2.169,0,0,0,.056.335.638.638,0,0,1,.019.335q-.037.074-.112.26t-.112.186H5.422V24.4Zm43.2-25.6a1.252,1.252,0,0,0,.316.279.767.767,0,0,0,.353.167,1.421,1.421,0,0,0,.5-.167,1.167,1.167,0,0,0,.428-.279h4.837V21.645q-.074,0-.353-.037a1.435,1.435,0,0,1-.353-.074,1.631,1.631,0,0,1-.446-.223,1.631,1.631,0,0,0-.446-.223q-.112,0-.446-.037t-.726-.074l-.781-.074q-.391-.037-.577-.037h-.242q-.2,0-.446-.019t-.484-.019H45.4q-.242,0-.465.019t-.391.019h-.2a2.23,2.23,0,0,0-.3.074,1.417,1.417,0,0,0-.372.149,3.2,3.2,0,0,1-.484.223,1.714,1.714,0,0,0-.446.223l-.223.223a.286.286,0,0,0-.037.112v.149a.509.509,0,0,0,.019.112.509.509,0,0,1,.019.112.583.583,0,0,1,.112-.149q.074-.074.112-.074a.817.817,0,0,1,.242-.149q.167-.074.242-.112a1.538,1.538,0,0,1,.465-.149,3.3,3.3,0,0,1,.428-.074h2.753q.037,0,.223.019t.409.056q.223.037.428.074a2.432,2.432,0,0,1,.316.074,2.428,2.428,0,0,0,.353.112.881.881,0,0,1,.353.149q.074.037.353.223a3.631,3.631,0,0,1,.316.223,2.714,2.714,0,0,0,.465.112,2.714,2.714,0,0,1,.465.112.621.621,0,0,0,.242.13,2.411,2.411,0,0,1,.316.13,1.3,1.3,0,0,0,.372.186v4.837H41.96V20.157H38.723v7.888h-.484q-.335,0-.726-.019l-.726-.037q-.335-.019-.484-.019-.186-.037-.707-.112t-.67-.112q-.074-.037-.446-.26a1.631,1.631,0,0,0-.446-.223,1.456,1.456,0,0,0-.521.3,1.524,1.524,0,0,0-.409.409H29.2V-1.2ZM37.011,13.943h1.265v-1.6h4.13v1.6h1.265V9.032H41.96V7.283H38.723V9.032H37.011Zm-1.86-7.33h3.014V3.86H35.151Zm7.367,0h2.977V3.86H42.518ZM54.461,4.642V-1.2h9.3V2.372h2.753V6.39h4.949a1.942,1.942,0,0,1,.074-.353.881.881,0,0,1,.149-.353h.223q.223,0,.67.037l.874.074q.428.037.781.074t.428.037A2.238,2.238,0,0,1,75,5.944q.223.037.484.074t.484.074a1.237,1.237,0,0,1,.3.074,1.794,1.794,0,0,1,.149.558,5.072,5.072,0,0,0,.112.558,2.71,2.71,0,0,0,.037.316q.037.242.074.5t.074.5a2.708,2.708,0,0,1,.037.316.508.508,0,0,0,.13.242.762.762,0,0,0,.2.2v-3.2h.707a.161.161,0,0,1,.074-.13.1.1,0,0,0,.037-.13.9.9,0,0,1-.223-.093l-.26-.13a2.461,2.461,0,0,0-.335-.112,2.463,2.463,0,0,1-.335-.112,3.531,3.531,0,0,0-.521-.149,2.913,2.913,0,0,0-.409-.074q-.112,0-.446-.037l-.688-.074L74,5.051q-.335-.037-.484-.037-.074-.074-.335-.353t-.335-.353q-.074-.037-.242-.112t-.242-.112a1.1,1.1,0,0,0-.335-.056q-.26-.019-.335-.019V2.372H74.33V-1.2h9.3V10.744H77.418l.707.446q.149,0,.577.037t.912.074q.484.037.893.074t.6.074a1.607,1.607,0,0,1,.353.093,3.56,3.56,0,0,1,.353.13,3.021,3.021,0,0,1,.372.037l.54.074.54.074a3.021,3.021,0,0,0,.372.037V27.971H80.544V26.594h-.6q-.037.149-.2.6a3.567,3.567,0,0,1-.242.558.583.583,0,0,1-.112.149q-.074.074-.112.074H74.33V15.581H72.507V19H65.586V15.581H63.763v6.176q0,.074-.316.242t-.5.242h-.67a6.33,6.33,0,0,0-.781-.149q-.521-.074-.6-.074a1.1,1.1,0,0,1-.242-.223q-.167-.186-.242-.26a3.818,3.818,0,0,1-.2-.372q-.13-.26-.26-.54t-.26-.54a3.348,3.348,0,0,1-.167-.372.41.41,0,0,0-.149.2.7.7,0,0,0-.074.242q0,.037.074.391a3.45,3.45,0,0,0,.149.54,1.391,1.391,0,0,0,.093.335q.093.26.13.335t.13.242a.6.6,0,0,1,.093.242l.446.446.167.019q.167.019.391.056l.465.074q.242.037.391.074.037,0,.279.037l.5.074.5.074a2.709,2.709,0,0,0,.316.037.583.583,0,0,1,.149.112.214.214,0,0,1,.074.149q0,.037.019.279t.019.353a.612.612,0,0,1-.019.149.611.611,0,0,0-.019.149v.186q-.037.074-.391.149l-.54.112H61.568q-.074-.037-.409-.223t-.484-.26q-.037-.037-.2-.167t-.372-.279q-.2-.149-.372-.279t-.2-.167a.047.047,0,0,0-.074,0,.152.152,0,0,1-.112.037.8.8,0,0,1-.037.2.286.286,0,0,0,0,.2q.037.112.2.465a4.45,4.45,0,0,0,.242.465q.074.074.223.242a.954.954,0,0,0,.223.2q.037,0,.651.074t.986.149a3.02,3.02,0,0,1,.372.037l.54.074.54.074a3.02,3.02,0,0,0,.372.037v2.307h-9.19V6.167q0-.037.186-.112a.8.8,0,0,0,.26-.149q.112-.037.446-.167l.726-.279.726-.279q.335-.13.409-.167a1.671,1.671,0,0,1,.242-.186.614.614,0,0,0,.2-.186ZM86.608,21.534a3.02,3.02,0,0,0,.372-.037l.54-.074.54-.074a3.021,3.021,0,0,1,.372-.037q.149-.037.67-.112t.707-.112q.149-.037.6-.112a5.071,5.071,0,0,0,.558-.112l-4.353-.521V7.99a.285.285,0,0,1,.074-.13.2.2,0,0,1,.149-.093,2.5,2.5,0,0,1,.409-.112q.335-.074.521-.112a2.723,2.723,0,0,1,.67-.149q.521-.074.707-.112.074,0,.372-.019t.651-.056q.353-.037.651-.074a1.514,1.514,0,0,0,.372-.074.725.725,0,0,0,.26-.093,1.137,1.137,0,0,0,.223-.13,5.071,5.071,0,0,1,.558-.112q.446-.074.6-.112V6.39l-.149-.037q-.149-.037-.372-.074L91.836,6.2a2.691,2.691,0,0,0-.391-.037q-.223,0-.781-.019T89.492,6.13q-.614,0-1.172.019t-.781.019q-.074-.037-.242-.112a.817.817,0,0,1-.242-.149q-.037,0-.112-.093t-.112-.13a.817.817,0,0,1-.149-.242.829.829,0,0,1-.074-.2V-1.2h22.064V6.5H96.245V9.479h5.767q.074,0,.335.316a2.151,2.151,0,0,1,.335.5q.037.112.112.353t.149.54q.074.3.13.558a2.05,2.05,0,0,1,.056.372q.037-.112.13-.372t.2-.558q.112-.3.2-.558a1,1,0,0,1,.167-.335,1.473,1.473,0,0,1,.335-.446q.26-.26.335-.26h4.167v7.7H96.245v2.977h12.427v7.7h-3.907q-.037,0-.112-.074l-.149-.149q-.037-.074-.112-.242t-.112-.242q0-.037-.093-.558t-.13-.819a2.282,2.282,0,0,0-.037-.3q-.037-.223-.074-.484t-.074-.484a2.238,2.238,0,0,1-.037-.335q-.037.037-.13.112t-.093.112a3.255,3.255,0,0,0-.13.446,2.662,2.662,0,0,0-.093.484,4.132,4.132,0,0,0-.074.5q-.037.353-.074.763t-.074.763q-.037.353-.037.5H94.2a1.306,1.306,0,0,1-.3-.186,3.354,3.354,0,0,0-.409-.26q0-.037-.093-.112a.467.467,0,0,1-.13-.149q-.112-.149-.372-.484t-.335-.409a2.066,2.066,0,0,1-.167-.335q-.093-.223-.2-.446t-.2-.391a.725.725,0,0,1-.093-.2,6.479,6.479,0,0,1-.074-.651q-.037-.465-.074-.967t-.056-.967q-.019-.465-.019-.651-.037.149-.112.54t-.149.837q-.074.446-.13.837t-.093.54v2.753l-.67.707H86.608Zm28.724-2.753a2.463,2.463,0,0,0-.335-.112q-.26-.074-.372-.112a2.237,2.237,0,0,1-.372-.074q-.3-.074-.651-.149t-.651-.13a1.874,1.874,0,0,1-.372-.093l-.93-.93a.817.817,0,0,1-.149-.242.829.829,0,0,1-.074-.2V-1.2h22.287V15.469h-2.53v1.377h2.53V27.971h-9.525V17.4h-3.237V27.971h-3.609q0-.074.019-.335t.019-.372a1.5,1.5,0,0,0,.149-.316,1.394,1.394,0,0,0,.112-.353V23.841q0-.149-.037-.6t-.074-.912q-.037-.465-.074-.893a4.473,4.473,0,0,0-.074-.577,3.714,3.714,0,0,0-.074-.446,1.582,1.582,0,0,0-.149-.484.6.6,0,0,0-.093-.242,1.184,1.184,0,0,0-.13-.2v5.953a2.912,2.912,0,0,1-.074.409,3.532,3.532,0,0,1-.149.521q-.037.074-.112.242a.845.845,0,0,1-.112.2q-.112.112-.3.316t-.372.391q-.186.186-.335.316l-.149.13h-3.907v-8.26q0-.037.26-.112t.446-.112a2.323,2.323,0,0,0,.242-.037q.2-.037.428-.093t.428-.093a1.9,1.9,0,0,1,.279-.037,1.576,1.576,0,0,0,.372-.074q.26-.074.54-.149t.54-.13Q115.221,18.818,115.333,18.78Zm5.73-9.413h3.125V8.1h4.465a2.6,2.6,0,0,0-.558-.2,2.729,2.729,0,0,0-.6-.13,3.184,3.184,0,0,1-.335-.037q-.26-.037-.577-.074t-.577-.074a3.184,3.184,0,0,0-.335-.037,3.636,3.636,0,0,0-.446-.056,1.968,1.968,0,0,1-.484-.093,5.546,5.546,0,0,1-.558-.112v-.67h-3.125ZM140.6,18.78a2.462,2.462,0,0,0-.335-.112q-.26-.074-.372-.112a2.237,2.237,0,0,1-.372-.074q-.3-.074-.651-.149t-.651-.13a1.873,1.873,0,0,1-.372-.093l-.93-.93a.818.818,0,0,1-.149-.242.829.829,0,0,1-.074-.2V-1.2h22.287V12.716h-2.53v1.377h2.53V27.971H142.606q0-.074.019-.335t.019-.372a1.5,1.5,0,0,0,.149-.316,1.394,1.394,0,0,0,.112-.353V23.841q0-.149-.037-.6t-.074-.912q-.037-.465-.074-.893a4.472,4.472,0,0,0-.074-.577,3.714,3.714,0,0,0-.074-.446,1.581,1.581,0,0,0-.149-.484.6.6,0,0,0-.093-.242,1.184,1.184,0,0,0-.13-.2v5.953a2.914,2.914,0,0,1-.074.409,3.534,3.534,0,0,1-.149.521q-.037.074-.112.242a.845.845,0,0,1-.112.2q-.112.112-.3.316t-.372.391q-.186.186-.335.316l-.149.13H136.69v-8.26q0-.037.26-.112t.446-.112a2.323,2.323,0,0,0,.242-.037q.2-.037.428-.093t.428-.093a1.9,1.9,0,0,1,.279-.037,1.577,1.577,0,0,0,.372-.074q.26-.074.54-.149t.54-.13Q140.485,18.818,140.6,18.78Zm5.73,1.377h3.014V17.4h-3.014Zm0-10.79h3.125V8.1h4.465a2.6,2.6,0,0,0-.558-.2,2.729,2.729,0,0,0-.6-.13,3.184,3.184,0,0,1-.335-.037q-.26-.037-.577-.074t-.577-.074a3.184,3.184,0,0,0-.335-.037,3.637,3.637,0,0,0-.447-.056,1.968,1.968,0,0,1-.484-.093,5.546,5.546,0,0,1-.558-.112v-.67h-3.125Zm17.227,14.474.037-.074v-.037q0-.112-.037-.112,0-.037-.26-.112t-.409-.112a1.538,1.538,0,0,0-.465-.149q-.353-.074-.465-.112V-1.2h11.013q.074,0,.242.186t.242.26a2.464,2.464,0,0,1,.112.335q.074.26.112.372a2.284,2.284,0,0,0,.037.3q.037.223.074.5t.074.521q.037.242.037.279a.285.285,0,0,0,.074.13.2.2,0,0,0,.149.093l.112.037h.074a.033.033,0,0,0,.037-.037q.037-.112.093-.372a5.068,5.068,0,0,1,.149-.54,5.068,5.068,0,0,0,.149-.54q.056-.26.093-.372a5.071,5.071,0,0,0,.112-.558q.074-.446.112-.6h3.423l1.86,1.6q.037.037.316-.019T181.3.214q.372-.112.744-.242a5.26,5.26,0,0,0,.6-.242q.037-.037.186-.167t.3-.279q.149-.149.26-.279a1.138,1.138,0,0,0,.149-.2h3.684V11.451l-.223.223a.817.817,0,0,1-.242.149.7.7,0,0,1-.242.074q-.037.037-.316,0a.78.78,0,0,0-.353,0q-.037.037-.13.112t-.093.112q.074.037.223.13a.5.5,0,0,0,.223.093,2.714,2.714,0,0,0,.465.112,2.714,2.714,0,0,1,.465.112.583.583,0,0,1,.149.112.214.214,0,0,1,.074.149V27.971H161.953V24.51q0-.037.186-.2t.26-.242a2.423,2.423,0,0,1,.577-.149A4.175,4.175,0,0,1,163.553,23.841Zm7.814-3.684h6.549V17.7a.837.837,0,0,0,.167-.037.838.838,0,0,1,.167-.037l.465.242.465.242h.93a1.613,1.613,0,0,0,.242-.056,4.333,4.333,0,0,1,.428-.093q.223-.037.428-.074a1.9,1.9,0,0,1,.279-.037q.223,0,.744-.019t1.135-.019q.614,0,1.135-.019t.744-.019q0-.074-.112-.149a.846.846,0,0,0-.2-.112q-.167-.074-.242-.112-.149-.037-.6-.13a3.96,3.96,0,0,0-.558-.093q-.223,0-.8-.037t-1.246-.074q-.67-.037-1.265-.074t-.819-.037l-1.488-1.377V6.614h-6.549Zm21.692-5.4V12.009h-3.088V9.479h4.13a2.6,2.6,0,0,0-.558-.2,2.729,2.729,0,0,0-.6-.13,3.185,3.185,0,0,1-.335-.037q-.26-.037-.577-.074t-.577-.074a3.183,3.183,0,0,0-.335-.037,6.706,6.706,0,0,0-.707-.149q-.446-.074-.446-.112V-1.2H199.5V9.367h3.125q0-.112.019-.409t.056-.633q.037-.335.074-.633a2.475,2.475,0,0,1,.074-.409.6.6,0,0,1,.093-.242,1.187,1.187,0,0,1,.13-.2.846.846,0,0,1,.2-.112q.167-.074.242-.112a1.222,1.222,0,0,1,.465.019,3.843,3.843,0,0,0,.465.056V6.167q-.112-.037-.465-.112a1.538,1.538,0,0,1-.465-.149.612.612,0,0,1-.186-.037l-.223-.074a.827.827,0,0,1-.26-.112V-1.2h9.413V.958a1.273,1.273,0,0,1-.242-.037,1.273,1.273,0,0,0-.242-.037q-.037-.037-.316-.242A3.676,3.676,0,0,0,211.1.4a1.218,1.218,0,0,1-.13-.074,1.214,1.214,0,0,0-.13-.074,1.444,1.444,0,0,1-.186-.074,1.9,1.9,0,0,0-.279.037q-.2.037-.428.074t-.428.074a2.324,2.324,0,0,1-.242.037q-.186.037-.446.074l-.521.074q-.26.037-.446.056t-.223.019q-.149,0-.539.019t-.837.019q-.447,0-.837-.019t-.54-.019A.582.582,0,0,0,205,.772l.112.112a2.462,2.462,0,0,0,.335.112q.26.074.372.112a1.154,1.154,0,0,0,.26.074l.372.074q.186.037.335.056t.186.019q.223,0,.763.037t1.172.074q.633.037,1.191.074t.781.037q.074.074.242.223a4.262,4.262,0,0,1,.335.335q.167.186.335.353l.242.242q.037.074.13.223a.5.5,0,0,1,.093.223v8.855h-3.125v2.753h-2.977V27.971h-3.088l-.223-.223q-.037-.037-.2-.26t-.372-.446q-.2-.223-.372-.428t-.2-.242a.292.292,0,0,1-.056-.074.291.291,0,0,0-.056-.074.432.432,0,0,0-.112-.074h-.112a.107.107,0,0,0-.074.037.8.8,0,0,1-.037.2.8.8,0,0,0-.037.2q.037.149.112.5a1.038,1.038,0,0,0,.149.428l.223.223v.186a.033.033,0,0,0,.037.037h-5.209V14.762Zm25.375,4.018a2.426,2.426,0,0,0-.353-.112,2.428,2.428,0,0,1-.353-.112,2.237,2.237,0,0,1-.372-.074q-.3-.074-.651-.149t-.651-.13a1.874,1.874,0,0,1-.372-.093,2.515,2.515,0,0,1-.577-.465q-.354-.353-.353-.465V14.092h1.6V12.716h-1.6V-1.2h22.287V12.716h-1.6v1.377h1.6V27.971H220.444q0-.074.019-.335t.019-.372a1.266,1.266,0,0,0,.13-.316,1.606,1.606,0,0,0,.093-.353q0-.037.019-.521t.019-.781q0-.26-.019-.819t-.019-.633q0-.149-.019-.6t-.056-.912q-.037-.465-.074-.893a4.468,4.468,0,0,0-.074-.577,3.034,3.034,0,0,0-.093-.446q-.093-.372-.13-.484a.6.6,0,0,0-.093-.242,1.187,1.187,0,0,0-.13-.2v5.953a2.911,2.911,0,0,1-.074.409,3.531,3.531,0,0,1-.149.521q-.037.074-.112.242a.846.846,0,0,1-.112.2q-.112.112-.3.316t-.372.391q-.186.186-.335.316l-.149.13h-3.684v-8.26q0-.037.186-.112t.26-.112q.037,0,.26-.037t.447-.093q.223-.056.428-.093a2.324,2.324,0,0,1,.242-.037,1.576,1.576,0,0,0,.372-.074q.26-.074.558-.149t.558-.13Q218.323,18.818,218.434,18.78Zm6.176,1.377h2.53V17.4h-2.53Zm0-10.79h2.642V8.1h4.5a4.362,4.362,0,0,0-.577-.2,2.5,2.5,0,0,0-.577-.13q-.074,0-.353-.037l-.577-.074-.577-.074q-.279-.037-.316-.037a3.617,3.617,0,0,0-.428-.056,2.538,2.538,0,0,1-.5-.093,5.021,5.021,0,0,1-.6-.112v-.67h-2.642Zm16.781,14.25-1.377-.484V-1.2h9.86q.037,0,.112.186a.8.8,0,0,0,.149.26q.037.112.13.372a1.391,1.391,0,0,1,.093.335,3.019,3.019,0,0,0,.037.372q.037.26.074.54t.074.54a3.022,3.022,0,0,1,.037.372q.074.074.112.074.112,0,.112-.074.037,0,.112-.26t.112-.409a1.733,1.733,0,0,0,.093-.316,4.518,4.518,0,0,1,.149-.5q.093-.26.149-.484a1.73,1.73,0,0,1,.093-.3.8.8,0,0,1,.037-.2q.037-.13.074-.242a.826.826,0,0,1,.112-.26h2.753L256.311.4q.335-.112.707-.26.3-.112.614-.223t.539-.186q.074-.037.242-.13a.725.725,0,0,1,.2-.093l.13-.26a.9.9,0,0,0,.093-.223q0-.037.112-.149a.433.433,0,0,1,.112-.074H262.3V11.451q0,.074-.186.242a.975.975,0,0,1-.3.2.822.822,0,0,1-.409-.056,2.136,2.136,0,0,0-.447-.093,1.12,1.12,0,0,1-.037.186q-.037.149,0,.186,0,.037.093.13t.13.093a2.714,2.714,0,0,0,.465.112,2.715,2.715,0,0,1,.465.112q.037.037.13.112a.2.2,0,0,1,.093.149V27.971H240.015V24.51q0-.037.186-.2t.26-.242a1.538,1.538,0,0,1,.465-.149,2.927,2.927,0,0,1,.465-.074Zm8.483-3.46h2.642V17.7a.612.612,0,0,0,.186-.037.612.612,0,0,1,.186-.037q0,.037.093.13t.13.093a.817.817,0,0,0,.242.149.846.846,0,0,1,.2.112h.484a1.612,1.612,0,0,0,.242-.056,4.331,4.331,0,0,1,.428-.093q.223-.037.428-.074a1.9,1.9,0,0,1,.279-.037h.521q.372,0,.781-.019t.781-.019h.521a.219.219,0,0,0-.112-.186.467.467,0,0,0-.186-.112.923.923,0,0,1-.26-.112,1.416,1.416,0,0,0-.372-.149,2.227,2.227,0,0,0-.3-.074q-.186,0-.6-.037t-.893-.074q-.484-.037-.912-.074t-.614-.037a.725.725,0,0,1-.2-.093q-.167-.093-.242-.13a2.211,2.211,0,0,1-.242-.353q-.167-.279-.2-.353a2.174,2.174,0,0,1-.186-.223,2.174,2.174,0,0,0-.186-.223V6.614h-2.642Z" transform="translate(370 47)" fill="#c7c7c7" />
    </g>
</svg>